<svg xmlns="http://www.w3.org/2000/svg" viewBox="0 0 125 125">
    <g fill="none" fill-rule="evenodd">
        <path
            d="M16.885 27.253h-.482c-1.847 0-3.359 1.594-3.359 3.543v30.507c0 1.948 1.512 3.542 3.36 3.542h.481c1.847 0 3.36-1.594 3.36-3.542V30.796c0-1.949-1.513-3.543-3.36-3.543M29.165 31.55h-.482c-1.847 0-3.359 1.593-3.359 3.542v21.915c0 1.948 1.512 3.542 3.36 3.542h.481c1.848 0 3.36-1.594 3.36-3.542V35.092c0-1.949-1.512-3.543-3.36-3.543M4.604 35.556h-.482c-1.847 0-3.358 1.593-3.358 3.541v13.904c0 1.948 1.511 3.542 3.358 3.542h.482c1.848 0 3.36-1.594 3.36-3.542V39.097c0-1.948-1.512-3.541-3.36-3.541"
            fill="#11364E"
        />
        <path
            d="M78.753 30.581h35.235c1.477 0 2.686-1.119 2.686-2.487v-2.226c0-1.368-1.209-2.487-2.686-2.487H78.753c-1.478 0-2.686 1.12-2.686 2.487v2.226c0 1.368 1.208 2.487 2.686 2.487M113.988 61.296H78.752c-1.476 0-2.685 1.118-2.685 2.486v2.227c0 1.367 1.209 2.487 2.685 2.487h35.236c1.477 0 2.686-1.12 2.686-2.487v-2.227c0-1.368-1.209-2.486-2.686-2.486M85.79 53.37v-2.226c0-1.368-1.209-2.487-2.686-2.487h-9.306c-1.476 0-2.685 1.12-2.685 2.487v2.226c0 1.368 1.209 2.487 2.685 2.487h9.306c1.477 0 2.686-1.119 2.686-2.487M89.75 51.144v2.226c0 1.368 1.209 2.487 2.687 2.487h18.865c1.478 0 2.686-1.12 2.686-2.487v-2.226c0-1.368-1.208-2.487-2.686-2.487H92.437c-1.478 0-2.686 1.119-2.686 2.487M118.353 36.02h-7.037c-1.477 0-2.686 1.118-2.686 2.486v2.226c0 1.368 1.209 2.487 2.686 2.487h7.037c1.477 0 2.685-1.12 2.685-2.487v-2.226c0-1.368-1.208-2.487-2.685-2.487M101.983 36.02H83.118c-1.478 0-2.686 1.118-2.686 2.486v2.226c0 1.368 1.208 2.487 2.686 2.487h18.865c1.477 0 2.686-1.12 2.686-2.487v-2.226c0-1.368-1.209-2.487-2.686-2.487"
            fill="#F05A4F"
        />
        <path
            d="M92.248 71.519a3.87 3.87 0 00-3.87 3.869c0 4.56-3.708 8.27-8.268 8.27H52.885c-4.56 0-8.27-3.71-8.27-8.27v-6.317H56.51a3.552 3.552 0 003.541-3.542v-3.17a3.552 3.552 0 00-3.541-3.542H44.616v-7.533H56.51a3.552 3.552 0 003.541-3.542v-3.17a3.552 3.552 0 00-3.541-3.543H44.616v-7.393H56.51a3.552 3.552 0 003.541-3.542v-3.171a3.552 3.552 0 00-3.541-3.542H44.616v-6.455c0-4.56 3.71-8.27 8.27-8.27H80.11c4.56 0 8.269 3.71 8.269 8.27a3.87 3.87 0 007.739 0C96.118 8.099 88.936.918 80.11.918H52.885C44.06.918 36.878 8.1 36.878 16.926v58.462c0 8.826 7.18 16.008 16.007 16.008H80.11c8.826 0 16.008-7.182 16.008-16.008a3.87 3.87 0 00-3.87-3.87"
            fill="#11364E"
        />
    </g>
</svg>
